<?xml version="1.0" encoding="UTF-8" standalone="no"?>
<!-- Created with Inkscape (http://www.inkscape.org/) -->

<svg
   width="286.44717mm"
   height="119.81256mm"
   viewBox="0 0 286.44719 119.81256"
   version="1.1"
   id="svg1"
   inkscape:version="1.4.2 (ebf0e940, 2025-05-08)"
   sodipodi:docname="jbubble.svg"
   xmlns:inkscape="http://www.inkscape.org/namespaces/inkscape"
   xmlns:sodipodi="http://sodipodi.sourceforge.net/DTD/sodipodi-0.dtd"
   xmlns="http://www.w3.org/2000/svg"
   xmlns:svg="http://www.w3.org/2000/svg">
  <sodipodi:namedview
     id="namedview1"
     pagecolor="#ffffff"
     bordercolor="#000000"
     borderopacity="0.25"
     inkscape:showpageshadow="2"
     inkscape:pageopacity="0.0"
     inkscape:pagecheckerboard="0"
     inkscape:deskcolor="#d1d1d1"
     inkscape:document-units="mm"
     inkscape:zoom="0.54520211"
     inkscape:cx="483.30701"
     inkscape:cy="234.77532"
     inkscape:window-width="1512"
     inkscape:window-height="853"
     inkscape:window-x="0"
     inkscape:window-y="34"
     inkscape:window-maximized="1"
     inkscape:current-layer="layer1" />
  <defs
     id="defs1" />
  <g
     inkscape:label="Layer 1"
     inkscape:groupmode="layer"
     id="layer1"
     transform="translate(-10.552753,-55.688926)">
    <path
       d="M 78.862806,118.40159 78.707173,89.687359 c 0,-6.484696 0.129694,-9.856738 0.389082,-10.116127 0.62253,-0.62253 1.634143,-1.219123 3.034838,-1.789776 1.452572,-0.570653 2.827328,-0.855979 4.124266,-0.855979 1.296939,0 1.945409,0.103755 1.945409,0.311265 -0.103755,0.518776 -0.259388,3.475797 -0.466897,8.871064 -0.155633,5.343391 -0.207511,8.663555 -0.155633,9.960495 h 1.245061 c 5.75841,0 10.453331,1.322879 14.084761,3.968629 1.45257,1.08943 2.72357,2.72358 3.813,4.90244 1.08943,2.12698 1.63415,4.6171 1.63415,7.47037 0,4.92836 -1.99729,9.05263 -5.99186,12.37279 -3.994578,3.26829 -8.897008,5.36933 -14.707296,6.30313 0,1.19319 -0.02594,1.84166 -0.07782,1.9454 -0.674409,0.67442 -1.867593,1.19319 -3.579553,1.55633 -1.660082,0.36315 -3.034838,0.54472 -4.124267,0.54472 -1.037551,0 -1.556327,-0.0778 -1.556327,-0.23345 0.363143,-1.45258 0.544715,-6.95159 0.544715,-16.49707 z m 8.94888,4.12427 c 1.348817,0 2.749512,-0.20751 4.202084,-0.62253 1.452572,-0.46689 2.619817,-1.03755 3.501736,-1.71195 0.933796,-0.67442 1.763837,-1.73791 2.490123,-3.19048 0.778164,-1.45257 1.167246,-3.34611 1.167246,-5.68059 0,-2.33449 -0.830042,-4.12427 -2.490124,-5.36933 -1.608205,-1.24507 -3.475797,-1.86759 -5.602777,-1.86759 l -3.579553,0.23344 v 5.60278 c 0,7.00347 0.103755,11.20556 0.311265,12.60625 z m 45.133444,4.12427 -0.0778,-1.63414 -0.0778,-0.15564 c -1.24506,1.91947 -2.82733,3.44986 -4.7468,4.59117 -1.86759,1.1413 -3.70925,1.71196 -5.52496,1.71196 -5.44715,0 -8.5598,-4.22802 -9.33797,-12.68407 -0.10375,-1.34881 -0.15562,-4.82461 -0.15562,-10.42739 0,-5.60278 0.23344,-8.922942 0.70034,-9.960494 1.34881,-1.089428 3.52768,-1.634143 6.53658,-1.634143 1.19317,0 1.91947,0.129694 2.17885,0.389082 0,0.05188 -0.0259,0.752224 -0.0778,2.101042 -0.25938,3.942693 -0.38907,6.977533 -0.38907,9.104513 0,2.12698 0.0259,3.70924 0.0778,4.7468 0.052,0.98568 0.0778,1.63414 0.0778,1.94541 0.0519,0.25938 0.1297,0.75221 0.23345,1.47851 0.15564,0.72629 0.36315,1.34882 0.62253,1.86759 0.77817,1.50445 1.97135,2.25667 3.57956,2.25667 1.66008,0 3.11265,-0.80409 4.35771,-2.4123 1.29694,-1.66008 1.91948,-2.82733 1.8676,-3.50175 v -2.64574 c 0,-9.4936 0.15564,-14.603541 0.46689,-15.329827 0.2594,-0.466899 1.0635,-0.959736 2.41231,-1.478511 1.40069,-0.518775 2.77545,-0.778164 4.12427,-0.778164 1.34881,0 2.12697,0.103756 2.33449,0.311266 l -0.15563,3.657369 c -0.31127,7.418497 -0.46691,13.150967 -0.46691,17.197417 0,4.04645 0.10376,6.61438 0.31128,7.70382 0.36314,2.59387 1.06348,4.66897 2.10103,6.2253 0,0.51878 -1.06349,1.34882 -3.19047,2.49013 -2.12698,1.14131 -3.94269,1.71196 -5.44714,1.71196 -0.41503,0 -0.88192,-0.77816 -1.4007,-2.33449 -0.51877,-1.55633 -0.83004,-3.06078 -0.93379,-4.51335 z m 16.18584,-8.24854 -0.15563,-28.714231 c 0,-6.484696 0.12969,-9.856738 0.38907,-10.116127 0.62254,-0.62253 1.63415,-1.219123 3.03484,-1.789776 1.45258,-0.570653 2.82733,-0.855979 4.12427,-0.855979 1.29694,0 1.94541,0.103755 1.94541,0.311265 -0.10375,0.518776 -0.25938,3.475797 -0.4669,8.871064 -0.15563,5.343391 -0.20751,8.663555 -0.15563,9.960495 h 1.24506 c 5.75842,0 10.45334,1.322879 14.08476,3.968629 1.45258,1.08943 2.72358,2.72358 3.813,4.90244 1.08944,2.12698 1.63415,4.6171 1.63415,7.47037 0,4.92836 -1.99729,9.05263 -5.99187,12.37279 -3.99457,3.26829 -8.897,5.36933 -14.70729,6.30313 0,1.19319 -0.0259,1.84166 -0.0778,1.9454 -0.6744,0.67442 -1.86759,1.19319 -3.57955,1.55633 -1.66009,0.36315 -3.03484,0.54472 -4.12428,0.54472 -1.03754,0 -1.55631,-0.0778 -1.55631,-0.23345 0.36314,-1.45258 0.54471,-6.95159 0.54471,-16.49707 z m 8.94888,4.12427 c 1.34881,0 2.74951,-0.20751 4.20208,-0.62253 1.45257,-0.46689 2.61982,-1.03755 3.50173,-1.71195 0.9338,-0.67442 1.76384,-1.73791 2.49013,-3.19048 0.77817,-1.45257 1.16724,-3.34611 1.16724,-5.68059 0,-2.33449 -0.83004,-4.12427 -2.49011,-5.36933 -1.60821,-1.24507 -3.4758,-1.86759 -5.60279,-1.86759 l -3.57955,0.23344 v 5.60278 c 0,7.00347 0.10376,11.20556 0.31127,12.60625 z m 24.97897,-4.12427 -0.15563,-28.714231 c 0,-6.484696 0.1297,-9.856738 0.38908,-10.116127 0.62253,-0.62253 1.63414,-1.219123 3.03484,-1.789776 1.45257,-0.570653 2.82733,-0.855979 4.12426,-0.855979 1.29694,0 1.94542,0.103755 1.94542,0.311265 -0.10376,0.518776 -0.2594,3.475797 -0.4669,8.871064 -0.15563,5.343391 -0.20752,8.663555 -0.15563,9.960495 h 1.24506 c 5.75841,0 10.45333,1.322879 14.08476,3.968629 1.45257,1.08943 2.72356,2.72358 3.813,4.90244 1.08942,2.12698 1.63414,4.6171 1.63414,7.47037 0,4.92836 -1.99728,9.05263 -5.99185,12.37279 -3.99459,3.26829 -8.89701,5.36933 -14.70729,6.30313 0,1.19319 -0.0259,1.84166 -0.0778,1.9454 -0.67442,0.67442 -1.8676,1.19319 -3.57956,1.55633 -1.66008,0.36315 -3.03483,0.54472 -4.12426,0.54472 -1.03755,0 -1.55633,-0.0778 -1.55633,-0.23345 0.36314,-1.45258 0.54471,-6.95159 0.54471,-16.49707 z m 8.94888,4.12427 c 1.34882,0 2.74951,-0.20751 4.20209,-0.62253 1.45257,-0.46689 2.61981,-1.03755 3.50174,-1.71195 0.9338,-0.67442 1.76383,-1.73791 2.49012,-3.19048 0.77816,-1.45257 1.16724,-3.34611 1.16724,-5.68059 0,-2.33449 -0.83004,-4.12427 -2.49013,-5.36933 -1.6082,-1.24507 -3.47579,-1.86759 -5.60277,-1.86759 l -3.57955,0.23344 v 5.60278 c 0,7.00347 0.10375,11.20556 0.31126,12.60625 z m 26.76879,-3.96863 0.31127,-28.169524 c 0,-4.098327 -0.052,-6.873777 -0.15563,-8.32635 -0.10375,-1.452572 -0.15564,-2.230735 -0.15564,-2.334491 0,-0.518775 0.85599,-1.115367 2.56795,-1.789776 1.76384,-0.674408 3.32016,-1.011612 4.66899,-1.011612 1.34881,0 2.02322,0.103755 2.02322,0.311265 -0.25939,1.91947 -0.38909,8.663555 -0.38909,20.232253 L 227.49194,116.534 c 0,3.57956 0.0519,5.78435 0.15562,6.6144 0.25939,2.28261 1.01161,4.35771 2.25668,6.2253 0,0.51878 -1.06348,1.34882 -3.19047,2.49013 -2.12698,1.1413 -3.9427,1.71196 -5.44715,1.71196 -0.41502,0 -0.88192,-0.77816 -1.4007,-2.33449 -0.51878,-1.55633 -0.83003,-2.90515 -0.93379,-4.04646 -0.10375,-1.1413 -0.15564,-4.02051 -0.15564,-8.63761 z m 35.3286,-13.69568 c 0,-1.50445 -0.8041,-2.25668 -2.41231,-2.25668 -2.12699,0 -3.99457,1.08944 -5.60278,3.26829 -1.6082,2.17886 -2.41231,4.79868 -2.41231,7.85945 0,0.72629 0.10376,1.08944 0.31128,1.08944 1.86758,-0.052 4.02051,-1.11537 6.45875,-3.19048 2.43824,-2.12698 3.65737,-4.38366 3.65737,-6.77002 z m 6.77002,24.7456 c -1.76383,1.19319 -5.21369,1.78978 -10.34957,1.78978 -5.13588,0 -9.07858,-1.53039 -11.82808,-4.59117 -2.74952,-3.06078 -4.12428,-7.13316 -4.12428,-12.21717 0,-5.13587 1.63415,-9.57141 4.90244,-13.30659 3.32016,-3.787066 7.96321,-5.680597 13.92912,-5.680597 2.43824,0 4.66899,0.64847 6.69221,1.945408 2.0751,1.29694 3.11265,3.579549 3.11265,6.847839 0,3.2164 -1.42663,6.40688 -4.27989,9.57141 -2.8014,3.16454 -6.64033,5.57685 -11.51682,7.23692 0,0.62253 0.62252,1.14131 1.86758,1.55633 1.29694,0.36315 2.56795,0.54471 3.813,0.54471 3.9427,0 7.05536,-0.70034 9.33797,-2.10104 0.0519,-0.0519 0.1297,-0.0778 0.23344,-0.0778 0.10376,0 0.15564,0.49284 0.15564,1.47851 0,3.0089 -0.64847,5.3434 -1.94541,7.00347 z"
       id="text1"
       style="font-size:101.499px;font-family:'Bubblegum Sans';-inkscape-font-specification:'Bubblegum Sans';letter-spacing:0px;fill:#ffffff;stroke:none;stroke-width:0.93527;stroke-linejoin:bevel"
       aria-label="jbubble"
       sodipodi:nodetypes="ccscscccsccsccccsccccccscccscccccscscsccsccccsccsccsccsccssscccscscccsccsccccsccccccscccscccscscccsccsccccsccccccscccscccsscscccccsssscssssccscssscscscccscssc" />
    <path
       d="m 58.101709,70.85754 c 3.402069,0 6.135875,1.093522 8.201416,3.280566 2.065543,2.187045 3.098314,5.042353 3.098314,8.565924 0,3.523572 -1.397279,6.561134 -4.191835,9.112686 -2.673055,2.43005 -5.710616,3.645075 -9.112686,3.645075 -3.280567,0 -5.95362,-1.093522 -8.019162,-3.280567 -1.944039,-2.187046 -2.916059,-4.981602 -2.916059,-8.383671 0,-3.523572 1.336527,-6.561134 4.009581,-9.112685 2.673054,-2.551552 5.649865,-3.827328 8.930431,-3.827328 z"
       style="font-size:101.499px;font-family:'Bubblegum Sans';-inkscape-font-specification:'Bubblegum Sans';letter-spacing:0px;fill:#ffffff;stroke:none;stroke-width:2.1905;stroke-linejoin:bevel"
       id="path1" />
    <path
       d="m 69.14575,125.5116 0.155633,10.9721 c 0,4.04645 -0.544715,7.62601 -1.634144,10.73866 -1.089428,3.11266 -2.412307,5.52497 -3.968634,7.23692 -1.556327,1.71196 -3.346104,3.08671 -5.369328,4.12427 -3.21641,1.71196 -6.510636,2.56794 -9.882678,2.56794 -0.155632,0 -0.466898,-0.38908 -0.933796,-1.16725 -0.466898,-0.77816 -0.907858,-1.84165 -1.322878,-3.19047 -0.415021,-1.34881 -0.622531,-2.59388 -0.622531,-3.73518 h 0.778164 c 1.919469,0 4.124266,-0.54471 6.61439,-1.63415 4.824614,-2.43824 7.236921,-8.11883 7.236921,-17.04178 0.103755,-3.42391 0.155632,-7.36661 0.155632,-11.82809 0,-4.51335 -0.181571,-6.97753 -0.544714,-7.39255 -0.726286,-0.6744 -2.282613,-1.29693 -4.668981,-1.86759 l -1.167246,-0.23344 c -0.103755,-0.20752 -0.155633,-0.49284 -0.155633,-0.85599 0,-2.38637 0.363144,-3.9427 1.08943,-4.66898 3.112654,-1.55633 7.418493,-2.33448 12.917515,-2.33448 0.933796,0 1.452572,0.052 1.556327,0.15562 -0.155633,7.00347 -0.233449,13.72162 -0.233449,20.15444 z"
       style="font-size:101.499px;font-family:'Bubblegum Sans';-inkscape-font-specification:'Bubblegum Sans';letter-spacing:0px;fill:#ffffff;stroke:none;stroke-width:0.93527;stroke-linejoin:bevel"
       id="path1-2" />
  </g>
</svg>
